ffmpeg started on 2025-06-16 at 17:11:03
Report written to "D:\Convert\FFMetrics\reports\psnr_report-6.txt"
Log level: 32
Command line:
ffmpeg -hide_banner -nostdin -i "G:\\\xc0\xed\xe8\xec\xe5\\[\xd2\xee\xef]\\\xd0\xfb\xf6\xe0\xf0\xfc-\xe2\xe0\xec\xef\xe8\xf0\\\xd2\xc2-2\\[JamClub] Vampire Knight Guilty - 11_HEVC.mkv" -i "G:\\\xc0\xed\xe8\xec\xe5\\[\xd2\xee\xef]\\\xd0\xfb\xf6\xe0\xf0\xfc-\xe2\xe0\xec\xef\xe8\xf0\\\xd2\xc2-2\\[JamClub] Vampire Knight Guilty - 11.mp4" -lavfi "[0:v]settb=AVTB,setpts=PTS-STARTPTS,format=pix_fmts=yuv420p10,fps=24000/1001,scale=1920:1080:flags=bicubic[main];[1:v]settb=AVTB,setpts=PTS-STARTPTS,format=pix_fmts=yuv420p,fps=24000/1001,scale=1920:1080:flags=bicubic[ref];[main][ref]psnr=eof_action=endall:stats_file='D\\:/Convert/FFMetrics/logs/psnr_logfile-6.txt'" -f null -
Input #0, matroska,webm, from 'G:\Аниме\[Топ]\Рыцарь-вампир\ТВ-2\[JamClub] Vampire Knight Guilty - 11_HEVC.mkv':
  Metadata:
    COMPATIBLE_BRANDS: isomiso2avc1mp41
    MAJOR_BRAND     : isom
    MINOR_VERSION   : 512
    ENCODER         : Lavf61.7.100
  Duration: 00:24:22.91, start: -0.001000, bitrate: 1105 kb/s
  Stream #0:0: Video: hevc (Main 10), yuv420p10le(tv, bt709, progressive), 1920x1080 [SAR 1:1 DAR 16:9], 23.98 fps, 23.98 tbr, 1k tbn (default)
      Metadata:
        HANDLER_NAME    : VideoHandler
        VENDOR_ID       : [0][0][0][0]
        ENCODER         : Lavc61.19.100 libx265
        BPS             : 906770
        DURATION        : 00:24:22.836708333
        NUMBER_OF_FRAMES: 43708
        NUMBER_OF_BYTES : 165807074
        _STATISTICS_WRITING_APP: mkvpropedit v66.0.0 ('Josie') 64-bit
        _STATISTICS_WRITING_DATE_UTC: 2025-06-16 12:26:56
        _STATISTICS_TAGS: BPS DURATION NUMBER_OF_FRAMES NUMBER_OF_BYTES
  Stream #0:1(eng): Audio: aac (LC), 48000 Hz, stereo, fltp (default)
      Metadata:
        HANDLER_NAME    : SoundHandler
        VENDOR_ID       : [0][0][0][0]
        ENCODER         : Lavc61.19.100 aac
        BPS             : 193976
        DURATION        : 00:24:22.864000000
        NUMBER_OF_FRAMES: 68573
        NUMBER_OF_BYTES : 35470141
        _STATISTICS_WRITING_APP: mkvpropedit v66.0.0 ('Josie') 64-bit
        _STATISTICS_WRITING_DATE_UTC: 2025-06-16 12:26:56
        _STATISTICS_TAGS: BPS DURATION NUMBER_OF_FRAMES NUMBER_OF_BYTES
Input #1, mov,mp4,m4a,3gp,3g2,mj2, from 'G:\Аниме\[Топ]\Рыцарь-вампир\ТВ-2\[JamClub] Vampire Knight Guilty - 11.mp4':
  Metadata:
    major_brand     : isom
    minor_version   : 512
    compatible_brands: isomiso2avc1mp41
    encoder         : Lavf60.16.100
  Duration: 00:24:22.88, start: 0.000000, bitrate: 4346 kb/s
  Stream #1:0[0x1](und): Video: h264 (High) (avc1 / 0x31637661), yuv420p(progressive), 1920x1080 [SAR 1:1 DAR 16:9], 4146 kb/s, 29.88 fps, 23.98 tbr, 90k tbn (default)
      Metadata:
        handler_name    : VideoHandler
        vendor_id       : [0][0][0][0]
  Stream #1:1[0x2](eng): Audio: aac (LC) (mp4a / 0x6134706D), 48000 Hz, stereo, fltp, 191 kb/s (default)
      Metadata:
        handler_name    : SoundHandler
        vendor_id       : [0][0][0][0]
Stream mapping:
  Stream #0:0 (hevc) -> settb:default
  Stream #1:0 (h264) -> settb:default
  psnr:default -> Stream #0:0 (wrapped_avframe)
  Stream #0:1 -> #0:1 (aac (native) -> pcm_s16le (native))
Output #0, null, to 'pipe:':
  Metadata:
    COMPATIBLE_BRANDS: isomiso2avc1mp41
    MAJOR_BRAND     : isom
    MINOR_VERSION   : 512
    encoder         : Lavf61.7.100
  Stream #0:0: Video: wrapped_avframe, yuv420p10le(tv, bt709, progressive), 1920x1080 [SAR 1:1 DAR 16:9], q=2-31, 200 kb/s, 23.98 fps, 23.98 tbn
      Metadata:
        encoder         : Lavc61.19.100 wrapped_avframe
  Stream #0:1(eng): Audio: pcm_s16le, 48000 Hz, stereo, s16, 1536 kb/s (default)
      Metadata:
        HANDLER_NAME    : SoundHandler
        VENDOR_ID       : [0][0][0][0]
        _STATISTICS_TAGS: BPS DURATION NUMBER_OF_FRAMES NUMBER_OF_BYTES
        BPS             : 193976
        DURATION        : 00:24:22.864000000
        NUMBER_OF_FRAMES: 68573
        NUMBER_OF_BYTES : 35470141
        _STATISTICS_WRITING_APP: mkvpropedit v66.0.0 ('Josie') 64-bit
        _STATISTICS_WRITING_DATE_UTC: 2025-06-16 12:26:56
        encoder         : Lavc61.19.100 pcm_s16le
frame=  112 fps=0.0 q=-0.0 size=N/A time=00:00:04.67 bitrate=N/A speed=9.06x    frame=  269 fps=263 q=-0.0 size=N/A time=00:00:11.21 bitrate=N/A speed=  11x    frame=  464 fps=302 q=-0.0 size=N/A time=00:00:19.35 bitrate=N/A speed=12.6x    frame=  715 fps=347 q=-0.0 size=N/A time=00:00:29.82 bitrate=N/A speed=14.5x    frame=  935 fps=364 q=-0.0 size=N/A time=00:00:38.99 bitrate=N/A speed=15.2x    frame= 1154 fps=373 q=-0.0 size=N/A time=00:00:48.13 bitrate=N/A speed=15.5x    frame= 1367 fps=379 q=-0.0 size=N/A time=00:00:57.01 bitrate=N/A speed=15.8x    frame= 1573 fps=381 q=-0.0 size=N/A time=00:01:05.60 bitrate=N/A speed=15.9x    frame= 1771 fps=382 q=-0.0 size=N/A time=00:01:13.86 bitrate=N/A speed=15.9x    frame= 1969 fps=382 q=-0.0 size=N/A time=00:01:22.12 bitrate=N/A speed=15.9x    frame= 2181 fps=385 q=-0.0 size=N/A time=00:01:30.96 bitrate=N/A speed=16.1x    frame= 2401 fps=388 q=-0.0 size=N/A time=00:01:40.14 bitrate=N/A speed=16.2x    frame= 2611 fps=390 q=-0.0 size=N/A time=00:01:48.90 bitrate=N/A speed=16.3x    frame= 2780 fps=385 q=-0.0 size=N/A time=00:01:55.94 bitrate=N/A speed=16.1x    frame= 2963 fps=383 q=-0.0 size=N/A time=00:02:03.58 bitrate=N/A speed=  16x    frame= 3196 fps=387 q=-0.0 size=N/A time=00:02:13.29 bitrate=N/A speed=16.2x    frame= 3417 fps=390 q=-0.0 size=N/A time=00:02:22.51 bitrate=N/A speed=16.3x    frame= 3610 fps=389 q=-0.0 size=N/A time=00:02:30.60 bitrate=N/A speed=16.2x    frame= 3832 fps=391 q=-0.0 size=N/A time=00:02:39.82 bitrate=N/A speed=16.3x    frame= 4057 fps=393 q=-0.0 size=N/A time=00:02:49.21 bitrate=N/A speed=16.4x    frame= 4285 fps=396 q=-0.0 size=N/A time=00:02:58.72 bitrate=N/A speed=16.5x    frame= 4513 fps=398 q=-0.0 size=N/A time=00:03:08.22 bitrate=N/A speed=16.6x    frame= 4757 fps=401 q=-0.0 size=N/A time=00:03:18.40 bitrate=N/A speed=16.7x    frame= 5001 fps=404 q=-0.0 size=N/A time=00:03:28.58 bitrate=N/A speed=16.9x    frame= 5220 fps=405 q=-0.0 size=N/A time=00:03:37.71 bitrate=N/A speed=16.9x    frame= 5453 fps=407 q=-0.0 size=N/A time=00:03:47.43 bitrate=N/A speed=  17x    frame= 5671 fps=408 q=-0.0 size=N/A time=00:03:56.52 bitrate=N/A speed=  17x    frame= 5892 fps=408 q=-0.0 size=N/A time=00:04:05.74 bitrate=N/A speed=  17x    frame= 6115 fps=409 q=-0.0 size=N/A time=00:04:15.04 bitrate=N/A speed=17.1x    frame= 6352 fps=411 q=-0.0 size=N/A time=00:04:24.93 bitrate=N/A speed=17.1x    frame= 6604 fps=413 q=-0.0 size=N/A time=00:04:35.44 bitrate=N/A speed=17.2x    frame= 6844 fps=415 q=-0.0 size=N/A time=00:04:45.45 bitrate=N/A speed=17.3x    frame= 7070 fps=416 q=-0.0 size=N/A time=00:04:54.87 bitrate=N/A speed=17.3x    frame= 7301 fps=416 q=-0.0 size=N/A time=00:05:04.51 bitrate=N/A speed=17.4x    frame= 7486 fps=415 q=-0.0 size=N/A time=00:05:12.22 bitrate=N/A speed=17.3x    frame= 7679 fps=414 q=-0.0 size=N/A time=00:05:20.27 bitrate=N/A speed=17.3x    frame= 7876 fps=413 q=-0.0 size=N/A time=00:05:28.49 bitrate=N/A speed=17.2x    frame= 8085 fps=413 q=-0.0 size=N/A time=00:05:37.21 bitrate=N/A speed=17.2x    frame= 8296 fps=413 q=-0.0 size=N/A time=00:05:46.01 bitrate=N/A speed=17.2x    frame= 8519 fps=413 q=-0.0 size=N/A time=00:05:55.31 bitrate=N/A speed=17.2x    frame= 8745 fps=414 q=-0.0 size=N/A time=00:06:04.73 bitrate=N/A speed=17.3x    frame= 8928 fps=412 q=-0.0 size=N/A time=00:06:12.37 bitrate=N/A speed=17.2x    frame= 9117 fps=411 q=-0.0 size=N/A time=00:06:20.25 bitrate=N/A speed=17.2x    frame= 9325 fps=411 q=-0.0 size=N/A time=00:06:28.93 bitrate=N/A speed=17.1x    frame= 9534 fps=411 q=-0.0 size=N/A time=00:06:37.64 bitrate=N/A speed=17.1x    frame= 9757 fps=411 q=-0.0 size=N/A time=00:06:46.94 bitrate=N/A speed=17.2x    frame= 9964 fps=411 q=-0.0 size=N/A time=00:06:55.58 bitrate=N/A speed=17.1x    frame=10191 fps=412 q=-0.0 size=N/A time=00:07:05.04 bitrate=N/A speed=17.2x    frame=10429 fps=413 q=-0.0 size=N/A time=00:07:14.97 bitrate=N/A speed=17.2x    frame=10677 fps=414 q=-0.0 size=N/A time=00:07:25.31 bitrate=N/A speed=17.3x    frame=10904 fps=415 q=-0.0 size=N/A time=00:07:34.78 bitrate=N/A speed=17.3x    frame=11104 fps=414 q=-0.0 size=N/A time=00:07:43.12 bitrate=N/A speed=17.3x    frame=11297 fps=413 q=-0.0 size=N/A time=00:07:51.17 bitrate=N/A speed=17.2x    frame=11514 fps=414 q=-0.0 size=N/A time=00:08:00.22 bitrate=N/A speed=17.3x    frame=11743 fps=414 q=-0.0 size=N/A time=00:08:09.78 bitrate=N/A speed=17.3x    frame=11960 fps=414 q=-0.0 size=N/A time=00:08:18.83 bitrate=N/A speed=17.3x    frame=12195 fps=415 q=-0.0 size=N/A time=00:08:28.63 bitrate=N/A speed=17.3x    frame=12422 fps=415 q=-0.0 size=N/A time=00:08:38.10 bitrate=N/A speed=17.3x    frame=12656 fps=416 q=-0.0 size=N/A time=00:08:47.86 bitrate=N/A speed=17.4x    frame=12876 fps=416 q=-0.0 size=N/A time=00:08:57.03 bitrate=N/A speed=17.4x    frame=13113 fps=417 q=-0.0 size=N/A time=00:09:06.92 bitrate=N/A speed=17.4x    frame=13330 fps=417 q=-0.0 size=N/A time=00:09:15.97 bitrate=N/A speed=17.4x    frame=13560 fps=417 q=-0.0 size=N/A time=00:09:25.56 bitrate=N/A speed=17.4x    frame=13777 fps=418 q=-0.0 size=N/A time=00:09:34.61 bitrate=N/A speed=17.4x    frame=14013 fps=418 q=-0.0 size=N/A time=00:09:44.45 bitrate=N/A speed=17.4x    frame=14237 fps=419 q=-0.0 size=N/A time=00:09:53.80 bitrate=N/A speed=17.5x    frame=14485 fps=419 q=-0.0 size=N/A time=00:10:04.14 bitrate=N/A speed=17.5x    frame=14729 fps=420 q=-0.0 size=N/A time=00:10:14.32 bitrate=N/A speed=17.5x    frame=14978 fps=421 q=-0.0 size=N/A time=00:10:24.70 bitrate=N/A speed=17.6x    frame=15206 fps=421 q=-0.0 size=N/A time=00:10:34.21 bitrate=N/A speed=17.6x    frame=15448 fps=422 q=-0.0 size=N/A time=00:10:44.31 bitrate=N/A speed=17.6x    frame=15686 fps=422 q=-0.0 size=N/A time=00:10:54.23 bitrate=N/A speed=17.6x    frame=15915 fps=423 q=-0.0 size=N/A time=00:11:03.78 bitrate=N/A speed=17.6x    frame=16144 fps=423 q=-0.0 size=N/A time=00:11:13.33 bitrate=N/A speed=17.6x    frame=16385 fps=424 q=-0.0 size=N/A time=00:11:23.39 bitrate=N/A speed=17.7x    frame=16624 fps=424 q=-0.0 size=N/A time=00:11:33.35 bitrate=N/A speed=17.7x    frame=16851 fps=424 q=-0.0 size=N/A time=00:11:42.82 bitrate=N/A speed=17.7x    frame=17063 fps=424 q=-0.0 size=N/A time=00:11:51.66 bitrate=N/A speed=17.7x    frame=17261 fps=424 q=-0.0 size=N/A time=00:11:59.92 bitrate=N/A speed=17.7x    frame=17491 fps=424 q=-0.0 size=N/A time=00:12:09.52 bitrate=N/A speed=17.7x    frame=17721 fps=424 q=-0.0 size=N/A time=00:12:19.11 bitrate=N/A speed=17.7x    frame=17949 fps=424 q=-0.0 size=N/A time=00:12:28.62 bitrate=N/A speed=17.7x    frame=18181 fps=425 q=-0.0 size=N/A time=00:12:38.29 bitrate=N/A speed=17.7x    frame=18392 fps=425 q=-0.0 size=N/A time=00:12:47.09 bitrate=N/A speed=17.7x    frame=18599 fps=424 q=-0.0 size=N/A time=00:12:55.73 bitrate=N/A speed=17.7x    frame=18824 fps=424 q=-0.0 size=N/A time=00:13:05.11 bitrate=N/A speed=17.7x    frame=19053 fps=425 q=-0.0 size=N/A time=00:13:14.66 bitrate=N/A speed=17.7x    frame=19286 fps=425 q=-0.0 size=N/A time=00:13:24.38 bitrate=N/A speed=17.7x    frame=19527 fps=425 q=-0.0 size=N/A time=00:13:34.43 bitrate=N/A speed=17.7x    frame=19746 fps=425 q=-0.0 size=N/A time=00:13:43.57 bitrate=N/A speed=17.7x    frame=19939 fps=425 q=-0.0 size=N/A time=00:13:51.62 bitrate=N/A speed=17.7x    frame=20156 fps=425 q=-0.0 size=N/A time=00:14:00.67 bitrate=N/A speed=17.7x    frame=20375 fps=425 q=-0.0 size=N/A time=00:14:09.80 bitrate=N/A speed=17.7x    frame=20604 fps=425 q=-0.0 size=N/A time=00:14:19.35 bitrate=N/A speed=17.7x    frame=20843 fps=425 q=-0.0 size=N/A time=00:14:29.32 bitrate=N/A speed=17.7x    frame=21069 fps=426 q=-0.0 size=N/A time=00:14:38.75 bitrate=N/A speed=17.8x    frame=21283 fps=425 q=-0.0 size=N/A time=00:14:47.67 bitrate=N/A speed=17.7x    frame=21506 fps=426 q=-0.0 size=N/A time=00:14:56.97 bitrate=N/A speed=17.7x    frame=21738 fps=426 q=-0.0 size=N/A time=00:15:06.65 bitrate=N/A speed=17.8x    frame=21955 fps=426 q=-0.0 size=N/A time=00:15:15.70 bitrate=N/A speed=17.8x    frame=22160 fps=425 q=-0.0 size=N/A time=00:15:24.25 bitrate=N/A speed=17.7x    frame=22350 fps=425 q=-0.0 size=N/A time=00:15:32.18 bitrate=N/A speed=17.7x    frame=22589 fps=425 q=-0.0 size=N/A time=00:15:42.14 bitrate=N/A speed=17.7x    frame=22812 fps=425 q=-0.0 size=N/A time=00:15:51.45 bitrate=N/A speed=17.7x    frame=23054 fps=426 q=-0.0 size=N/A time=00:16:01.54 bitrate=N/A speed=17.8x    frame=23270 fps=426 q=-0.0 size=N/A time=00:16:10.55 bitrate=N/A speed=17.8x    frame=23492 fps=426 q=-0.0 size=N/A time=00:16:19.81 bitrate=N/A speed=17.8x    frame=23683 fps=425 q=-0.0 size=N/A time=00:16:27.77 bitrate=N/A speed=17.7x    frame=23899 fps=425 q=-0.0 size=N/A time=00:16:36.78 bitrate=N/A speed=17.7x    frame=24127 fps=425 q=-0.0 size=N/A time=00:16:46.29 bitrate=N/A speed=17.7x    frame=24368 fps=426 q=-0.0 size=N/A time=00:16:56.34 bitrate=N/A speed=17.8x    frame=24603 fps=426 q=-0.0 size=N/A time=00:17:06.15 bitrate=N/A speed=17.8x    frame=24842 fps=426 q=-0.0 size=N/A time=00:17:16.11 bitrate=N/A speed=17.8x    frame=25064 fps=426 q=-0.0 size=N/A time=00:17:25.37 bitrate=N/A speed=17.8x    frame=25269 fps=426 q=-0.0 size=N/A time=00:17:33.92 bitrate=N/A speed=17.8x    frame=25499 fps=426 q=-0.0 size=N/A time=00:17:43.52 bitrate=N/A speed=17.8x    frame=25713 fps=426 q=-0.0 size=N/A time=00:17:52.44 bitrate=N/A speed=17.8x    frame=25922 fps=426 q=-0.0 size=N/A time=00:18:01.16 bitrate=N/A speed=17.8x    frame=26122 fps=426 q=-0.0 size=N/A time=00:18:09.50 bitrate=N/A speed=17.8x    frame=26339 fps=426 q=-0.0 size=N/A time=00:18:18.55 bitrate=N/A speed=17.8x    frame=26582 fps=426 q=-0.0 size=N/A time=00:18:28.69 bitrate=N/A speed=17.8x    frame=26825 fps=426 q=-0.0 size=N/A time=00:18:38.82 bitrate=N/A speed=17.8x    frame=27050 fps=426 q=-0.0 size=N/A time=00:18:48.21 bitrate=N/A speed=17.8x    frame=27288 fps=427 q=-0.0 size=N/A time=00:18:58.13 bitrate=N/A speed=17.8x    frame=27509 fps=427 q=-0.0 size=N/A time=00:19:07.35 bitrate=N/A speed=17.8x    frame=27744 fps=427 q=-0.0 size=N/A time=00:19:17.15 bitrate=N/A speed=17.8x    frame=27981 fps=427 q=-0.0 size=N/A time=00:19:27.04 bitrate=N/A speed=17.8x    frame=28189 fps=427 q=-0.0 size=N/A time=00:19:35.71 bitrate=N/A speed=17.8x    frame=28422 fps=427 q=-0.0 size=N/A time=00:19:45.43 bitrate=N/A speed=17.8x    frame=28646 fps=427 q=-0.0 size=N/A time=00:19:54.77 bitrate=N/A speed=17.8x    frame=28870 fps=427 q=-0.0 size=N/A time=00:20:04.11 bitrate=N/A speed=17.8x    frame=29101 fps=427 q=-0.0 size=N/A time=00:20:13.75 bitrate=N/A speed=17.8x    frame=29321 fps=428 q=-0.0 size=N/A time=00:20:22.93 bitrate=N/A speed=17.8x    frame=29554 fps=428 q=-0.0 size=N/A time=00:20:32.64 bitrate=N/A speed=17.8x    frame=29758 fps=427 q=-0.0 size=N/A time=00:20:41.15 bitrate=N/A speed=17.8x    frame=29994 fps=428 q=-0.0 size=N/A time=00:20:50.99 bitrate=N/A speed=17.8x    frame=30217 fps=428 q=-0.0 size=N/A time=00:21:00.30 bitrate=N/A speed=17.8x    frame=30444 fps=428 q=-0.0 size=N/A time=00:21:09.76 bitrate=N/A speed=17.8x    frame=30682 fps=428 q=-0.0 size=N/A time=00:21:19.69 bitrate=N/A speed=17.9x    frame=30886 fps=428 q=-0.0 size=N/A time=00:21:28.20 bitrate=N/A speed=17.8x    frame=31091 fps=428 q=-0.0 size=N/A time=00:21:36.75 bitrate=N/A speed=17.8x    frame=31314 fps=428 q=-0.0 size=N/A time=00:21:46.05 bitrate=N/A speed=17.8x    frame=31560 fps=428 q=-0.0 size=N/A time=00:21:56.31 bitrate=N/A speed=17.9x    frame=31810 fps=428 q=-0.0 size=N/A time=00:22:06.74 bitrate=N/A speed=17.9x    frame=32036 fps=428 q=-0.0 size=N/A time=00:22:16.16 bitrate=N/A speed=17.9x    frame=32274 fps=429 q=-0.0 size=N/A time=00:22:26.09 bitrate=N/A speed=17.9x    frame=32501 fps=429 q=-0.0 size=N/A time=00:22:35.56 bitrate=N/A speed=17.9x    frame=32733 fps=429 q=-0.0 size=N/A time=00:22:45.23 bitrate=N/A speed=17.9x    frame=32953 fps=429 q=-0.0 size=N/A time=00:22:54.41 bitrate=N/A speed=17.9x    frame=33162 fps=429 q=-0.0 size=N/A time=00:23:03.13 bitrate=N/A speed=17.9x    frame=33351 fps=428 q=-0.0 size=N/A time=00:23:11.01 bitrate=N/A speed=17.9x    frame=33560 fps=428 q=-0.0 size=N/A time=00:23:19.73 bitrate=N/A speed=17.9x    frame=33759 fps=428 q=-0.0 size=N/A time=00:23:28.03 bitrate=N/A speed=17.8x    frame=33970 fps=428 q=-0.0 size=N/A time=00:23:36.83 bitrate=N/A speed=17.8x    frame=34186 fps=428 q=-0.0 size=N/A time=00:23:45.84 bitrate=N/A speed=17.8x    frame=34419 fps=428 q=-0.0 size=N/A time=00:23:55.55 bitrate=N/A speed=17.8x    frame=34609 fps=428 q=-0.0 size=N/A time=00:24:03.48 bitrate=N/A speed=17.8x    frame=34801 fps=427 q=-0.0 size=N/A time=00:24:11.49 bitrate=N/A speed=17.8x    frame=35045 fps=427 q=-0.0 size=N/A time=00:24:21.66 bitrate=N/A speed=17.8x    [Parsed_psnr_10 @ 0000027a97a7ad40] PSNR y:49.403498 u:52.151843 v:52.325534 average:50.159540 min:31.947264 max:inf
[out#0/null @ 0000027a916720c0] video:15070KiB audio:274292KiB subtitle:0KiB other streams:0KiB global headers:0KiB muxing overhead: unknown
frame=35073 fps=427 q=-0.0 Lsize=N/A time=00:24:22.83 bitrate=N/A speed=17.8x    
